<svg id="Layer_1" data-name="Layer 1" xmlns="http://www.w3.org/2000/svg" viewBox="0 0 500 500"><defs><style>.cls-1{fill:#1f5eea;}.cls-2{fill:#4274ff;}</style></defs><path class="cls-1" d="M198.7,87.31l-1.18,215.45c-38.23,0-80.62-10.39-95-50.19l1.19-165.26a23,23,0,0,1,23-23h49A23,23,0,0,1,198.7,87.31Z"/><path class="cls-2" d="M360.16,70.58a11.3,11.3,0,0,0-20.22,0l-37.41,74.81h0V286.65c0,55.17-61.78,66.74-101.53,66.74a148.45,148.45,0,0,1-98.57-37.28A149,149,0,0,0,246.78,435.66c82.92.95,150.77-68.59,150.77-151.51V145.39h0Z"/></svg>