<svg id="Layer_1" data-name="Layer 1" xmlns="http://www.w3.org/2000/svg" viewBox="0 0 1699.56 431.78"><defs><style>.cls-1{fill:#76a7f0;}</style></defs><path class="cls-1" d="M158.61,74.78l-1,186.87c-33.16,0-69.93-9-82.41-43.53l1-143.34A19.93,19.93,0,0,1,96.12,54.85h42.53A20,20,0,0,1,158.61,74.78Z"/><path class="cls-1" d="M298.65,60.27a9.81,9.81,0,0,0-17.54,0l-32.45,64.89h0V247.68c0,47.85-53.59,57.88-88.06,57.88a128.79,128.79,0,0,1-85.5-32.33,129.26,129.26,0,0,0,125.2,103.69c71.92.83,130.77-59.49,130.77-131.41V125.16h0Z"/><path class="cls-1" d="M491.35,160.35q10.35-6.89,24.29-6.88A45.37,45.37,0,0,1,530,155.66,36.8,36.8,0,0,1,541.69,162a34.05,34.05,0,0,1,8.34,10,38.27,38.27,0,0,1,4.3,13.29h38.41a76.89,76.89,0,0,0-8.37-27.72A66.94,66.94,0,0,0,567.48,137a73.94,73.94,0,0,0-23.73-12.76,92.59,92.59,0,0,0-29-4.39q-23.68,0-42.63,10.84t-30,31.44q-11.06,20.61-11.05,50T442,262.05q10.92,20.61,29.82,31.49t42.94,10.88a86.68,86.68,0,0,0,31-5.22A74.32,74.32,0,0,0,569.45,285a71.92,71.92,0,0,0,15.88-20.44,69.48,69.48,0,0,0,7.41-23.81l-38.41-.18a37.86,37.86,0,0,1-4.7,12.81,34,34,0,0,1-8.46,9.52,36.87,36.87,0,0,1-11.62,5.92,48,48,0,0,1-14.17,2,43.24,43.24,0,0,1-23.94-6.66q-10.37-6.68-16.1-19.74t-5.75-32.27q0-18.69,5.71-31.8T491.35,160.35Z"/><path class="cls-1" d="M715.49,174.21q-14.87-8.73-35.3-8.73t-35.31,8.73A59,59,0,0,0,622,198.59q-8.07,15.66-8.07,36.54,0,20.7,8.07,36.35a58.91,58.91,0,0,0,22.93,24.38q14.88,8.73,35.31,8.73t35.3-8.73a58.93,58.93,0,0,0,22.94-24.38q8.07-15.66,8.07-36.35,0-20.88-8.07-36.54A59,59,0,0,0,715.49,174.21Zm-10.17,81.62a32.69,32.69,0,0,1-9.43,14.51q-6.23,5.31-15.53,5.31t-15.74-5.31a32.07,32.07,0,0,1-9.56-14.51,70.28,70.28,0,0,1,0-41.93,32.4,32.4,0,0,1,9.56-14.56Q671,194,680.36,194t15.53,5.35a33,33,0,0,1,9.43,14.56,70.28,70.28,0,0,1,0,41.93Z"/><path class="cls-1" d="M857.27,244.6q.09,9-3.55,15.17a24.07,24.07,0,0,1-9.51,9.26,26.65,26.65,0,0,1-12.63,3.11q-10.62,0-16.93-6.93t-6.41-18.86V167.24H770.88V253q.09,15.78,5.83,27.1a42,42,0,0,0,16,17.46,45.42,45.42,0,0,0,23.77,6.14q15.18,0,25.74-7.2a39.82,39.82,0,0,0,15.13-19h1.41V302h35.87V167.24H857.27Z"/><path class="cls-1" d="M994.45,165.31a32.71,32.71,0,0,0-20,6.44q-8.69,6.45-12.36,19h-1.41v-23.5H924.46V302h37.36V225.74a28.14,28.14,0,0,1,3.73-14.56,26.45,26.45,0,0,1,10.18-9.87,29.88,29.88,0,0,1,14.69-3.55,67.1,67.1,0,0,1,8.51.61,48.68,48.68,0,0,1,7.28,1.41V166.62a43.6,43.6,0,0,0-5.71-1A57.47,57.47,0,0,0,994.45,165.31Z"/><path class="cls-1" d="M1101.63,223.72l-24.38-4.91q-9.39-2-13.25-5.35a10.39,10.39,0,0,1-3.86-8.16q0-6,6-9.69t14.65-3.64a26.74,26.74,0,0,1,11.18,2.15,20.66,20.66,0,0,1,7.59,5.7,18.07,18.07,0,0,1,3.77,7.94l34.21-2.11q-2.46-18.59-17.15-29.38t-40.22-10.79q-17.28,0-30.13,5.09T1030.1,185q-7,9.39-7.06,22.37,0,15.09,9.61,24.82T1062,245.91l23.33,4.65q8.76,1.75,13,5.05a10.42,10.42,0,0,1,4.3,8.37q-.09,6.06-6.1,9.87t-15.83,3.82q-10,0-16.4-4.26A18.69,18.69,0,0,1,1056.2,261l-36.75,1.93A43.2,43.2,0,0,0,1038,293.41q15.82,11.18,42.58,11.18,17.55,0,31-5.57t21.22-15.57a36.78,36.78,0,0,0,7.77-23.24q0-14.56-9.65-23.51T1101.63,223.72Z"/><path class="cls-1" d="M1269.12,182.5a56.1,56.1,0,0,0-20.18-12.76,71.23,71.23,0,0,0-24.87-4.26q-19.82,0-34.51,8.77a59.61,59.61,0,0,0-22.76,24.48q-8.07,15.69-8.07,36.48,0,21.31,8.07,36.88a57.18,57.18,0,0,0,23,24q15,8.46,35.75,8.46,16.65,0,29.42-5.13a54,54,0,0,0,20.88-14.38,47.07,47.07,0,0,0,10.74-21.71l-34.55-2.28a22.81,22.81,0,0,1-5.62,8.59,23.63,23.63,0,0,1-8.86,5.27,35.31,35.31,0,0,1-11.4,1.75,31.94,31.94,0,0,1-16.23-3.95,26.71,26.71,0,0,1-10.57-11.22,37.58,37.58,0,0,1-3.72-17.28v-.09h91.74V233.9q0-17.19-4.82-30A58.27,58.27,0,0,0,1269.12,182.5ZM1195.71,221a29.29,29.29,0,0,1,3.72-13.28,27.89,27.89,0,0,1,10.22-10.44,28.77,28.77,0,0,1,15-3.91,28.25,28.25,0,0,1,14.34,3.56,25.5,25.5,0,0,1,9.69,9.78,28.58,28.58,0,0,1,3.51,14.29Z"/><path class="cls-1" d="M1423.44,235.74a36.29,36.29,0,0,1-4.52,18.24,32.36,32.36,0,0,1-12.71,12.55,42.85,42.85,0,0,1-38.47,0A32.3,32.3,0,0,1,1355,254a36.39,36.39,0,0,1-4.51-18.24V122.33h-38V239q0,19.65,9.29,34.39a62.5,62.5,0,0,0,26,22.93q16.76,8.2,39.12,8.2t39-8.2a62.8,62.8,0,0,0,26.09-22.93q9.35-14.75,9.34-34.39V122.33h-38Z"/><path class="cls-1" d="M1615.88,196.22q-7.45-15.39-19.91-23.06a50.85,50.85,0,0,0-27.19-7.68q-11.33,0-18.9,3.82a37.49,37.49,0,0,0-12.28,9.47,49.12,49.12,0,0,0-7.15,11.1h-1.67V167.24h-36.84V352.48h37.37v-72.1h1.14a44.66,44.66,0,0,0,7.37,11.1,37.85,37.85,0,0,0,12.41,9.08q7.57,3.6,18.46,3.59a50.44,50.44,0,0,0,27.76-7.93q12.4-8,19.65-23.42t7.23-38Q1623.33,211.63,1615.88,196.22Zm-34,59.12a31.07,31.07,0,0,1-9.6,14,26.2,26.2,0,0,1-30.79.08,30.76,30.76,0,0,1-9.65-13.9,60,60,0,0,1-3.33-21,59.32,59.32,0,0,1,3.33-20.88,30.08,30.08,0,0,1,9.61-13.68,24.52,24.52,0,0,1,15.39-4.82q9.21,0,15.52,5a30.54,30.54,0,0,1,9.56,13.85,59.41,59.41,0,0,1,3.25,20.53A60.22,60.22,0,0,1,1581.89,255.34Z"/></svg>