<svg id="Layer_1" data-name="Layer 1" xmlns="http://www.w3.org/2000/svg" viewBox="0 0 1353.78 322.22"><defs><style>.cls-1{fill:#76a7f0;}</style></defs><path class="cls-1" d="M141,105.57q10.35-6.88,24.3-6.88a45.41,45.41,0,0,1,14.34,2.19,36.63,36.63,0,0,1,11.71,6.32,33.83,33.83,0,0,1,8.33,10,37.86,37.86,0,0,1,4.3,13.29h38.42A76.7,76.7,0,0,0,234,102.72a67,67,0,0,0-16.88-20.48,74.14,74.14,0,0,0-23.73-12.76,92.66,92.66,0,0,0-29-4.38q-23.67,0-42.62,10.83t-30,31.44q-11.05,20.61-11,50t10.92,49.91q10.92,20.61,29.82,31.48t42.93,10.88a86.74,86.74,0,0,0,31-5.22,74.25,74.25,0,0,0,23.68-14.21A71.78,71.78,0,0,0,235,209.77,69.85,69.85,0,0,0,242.42,186L204,185.79a37.88,37.88,0,0,1-4.69,12.8,34.05,34.05,0,0,1-8.46,9.52A36.92,36.92,0,0,1,179.22,214a47.88,47.88,0,0,1-14.16,2,43.28,43.28,0,0,1-23.95-6.67q-10.35-6.66-16.09-19.73t-5.75-32.28q0-18.69,5.7-31.8T141,105.57Z"/><path class="cls-1" d="M365.17,119.43q-14.87-8.73-35.3-8.72t-35.31,8.72a59,59,0,0,0-22.94,24.39q-8.07,15.65-8.07,36.53,0,20.7,8.07,36.35a59,59,0,0,0,22.94,24.39q14.87,8.73,35.31,8.72t35.3-8.72A59,59,0,0,0,388.1,216.7q8.07-15.64,8.07-36.35,0-20.88-8.07-36.53A59,59,0,0,0,365.17,119.43ZM355,201.05a32.54,32.54,0,0,1-9.42,14.51q-6.24,5.31-15.53,5.31t-15.74-5.31a32,32,0,0,1-9.56-14.51,63.53,63.53,0,0,1-3.21-21,63.51,63.51,0,0,1,3.21-21,32.4,32.4,0,0,1,9.56-14.56q6.34-5.34,15.74-5.35t15.53,5.35A32.93,32.93,0,0,1,355,159.12a63.51,63.51,0,0,1,3.21,21A63.53,63.53,0,0,1,355,201.05Z"/><path class="cls-1" d="M507,189.82q.09,9-3.55,15.17a24.1,24.1,0,0,1-9.52,9.26,26.65,26.65,0,0,1-12.63,3.11q-10.61,0-16.93-6.93t-6.4-18.86V112.46H420.56v85.78q.07,15.8,5.83,27.1a41.89,41.89,0,0,0,16,17.46,45.42,45.42,0,0,0,23.77,6.14q15.16,0,25.74-7.19a39.91,39.91,0,0,0,15.13-19h1.4v24.47h35.88V112.46H507Z"/><path class="cls-1" d="M644.13,110.53a32.66,32.66,0,0,0-20,6.45q-8.68,6.43-12.37,19h-1.4v-23.5H574.14V247.18H611.5V171a28.07,28.07,0,0,1,3.73-14.56,26.33,26.33,0,0,1,10.17-9.86A29.94,29.94,0,0,1,640.09,143a65.31,65.31,0,0,1,8.51.62,48.36,48.36,0,0,1,7.28,1.4V111.85a42,42,0,0,0-5.7-1A57.47,57.47,0,0,0,644.13,110.53Z"/><path class="cls-1" d="M751.31,169,726.93,164q-9.39-2-13.25-5.35a10.38,10.38,0,0,1-3.86-8.15q0-6.06,6-9.7t14.64-3.64a26.75,26.75,0,0,1,11.19,2.15,20.92,20.92,0,0,1,7.58,5.7A18.09,18.09,0,0,1,753,153l34.2-2.1q-2.45-18.6-17.14-29.39t-40.22-10.78q-17.28,0-30.13,5.08t-19.91,14.47q-7.06,9.39-7.06,22.37,0,15.09,9.6,24.82t29.34,13.69L735,195.78q8.78,1.75,13,5.05a10.41,10.41,0,0,1,4.29,8.37c0,4-2.09,7.33-6.09,9.87s-9.29,3.82-15.83,3.82-12.14-1.42-16.41-4.26a18.65,18.65,0,0,1-8.06-12.41l-36.76,1.93a43.23,43.23,0,0,0,18.55,30.48q15.84,11.19,42.59,11.18,17.54,0,31-5.57t21.23-15.56a36.82,36.82,0,0,0,7.76-23.25q0-14.55-9.65-23.5T751.31,169Z"/><path class="cls-1" d="M918.79,127.72A56.11,56.11,0,0,0,898.62,115a71.23,71.23,0,0,0-24.87-4.25q-19.82,0-34.51,8.77A59.39,59.39,0,0,0,816.48,144q-8.07,15.7-8.07,36.48,0,21.33,8.07,36.89a57.16,57.16,0,0,0,23,24q15,8.46,35.74,8.46,16.66,0,29.43-5.13a53.85,53.85,0,0,0,20.87-14.38,47.19,47.19,0,0,0,10.75-21.71l-34.56-2.28a23,23,0,0,1-5.61,8.6,23.82,23.82,0,0,1-8.86,5.26,35.31,35.31,0,0,1-11.4,1.75A31.93,31.93,0,0,1,859.63,218a26.8,26.8,0,0,1-10.57-11.23,37.42,37.42,0,0,1-3.73-17.28v-.09h91.75V179.12q0-17.19-4.83-30A58,58,0,0,0,918.79,127.72Zm-73.41,38.51a29.58,29.58,0,0,1,3.72-13.29,28,28,0,0,1,10.22-10.44,28.79,28.79,0,0,1,15-3.9,28.31,28.31,0,0,1,14.35,3.55,25.57,25.57,0,0,1,9.69,9.78,28.62,28.62,0,0,1,3.51,14.3Z"/><path class="cls-1" d="M1073.12,181a36.46,36.46,0,0,1-4.52,18.25,32.37,32.37,0,0,1-12.72,12.54,42.83,42.83,0,0,1-38.46,0,32.28,32.28,0,0,1-12.76-12.54,36.46,36.46,0,0,1-4.52-18.25V67.55h-38V184.21q0,19.65,9.3,34.38a62.53,62.53,0,0,0,26,22.94q16.75,8.19,39.12,8.2t39-8.2a62.85,62.85,0,0,0,26.1-22.94q9.33-14.73,9.34-34.38V67.55h-38Z"/><path class="cls-1" d="M1265.56,141.45q-7.47-15.39-19.92-23.07a50.79,50.79,0,0,0-27.19-7.67q-11.31,0-18.9,3.81a37.59,37.59,0,0,0-12.28,9.47,49.47,49.47,0,0,0-7.15,11.1h-1.66V112.46h-36.84V297.7H1179V225.61h1.13a45.37,45.37,0,0,0,7.37,11.09,37.92,37.92,0,0,0,12.41,9.08q7.59,3.6,18.47,3.6a50.47,50.47,0,0,0,27.76-7.94q12.4-7.94,19.64-23.42t7.24-38Q1273,156.84,1265.56,141.45Zm-34,59.11a31.16,31.16,0,0,1-9.61,14,26.21,26.21,0,0,1-30.78.09,30.84,30.84,0,0,1-9.65-13.91,59.74,59.74,0,0,1-3.34-21,59,59,0,0,1,3.34-20.87,30.12,30.12,0,0,1,9.6-13.69,24.53,24.53,0,0,1,15.4-4.82,24.24,24.24,0,0,1,15.52,5,30.51,30.51,0,0,1,9.56,13.86,59.59,59.59,0,0,1,3.25,20.52A60.22,60.22,0,0,1,1231.57,200.56Z"/></svg>