<svg width="455" height="469" viewBox="0 0 455 469" fill="none" xmlns="http://www.w3.org/2000/svg">
    <path d="M13.5894 176.083L40.6976 160.43V129.148L13.5894 144.789V176.083Z" fill="#67809E"/>
    <path d="M67.8083 176.083V144.789L40.7001 129.148L39.9028 159.973L67.8083 176.083Z" fill="#597DA7"/>
    <path d="M40.6976 129.148L13.5894 144.789L40.6976 160.43L67.8058 144.789L40.6976 129.148ZM21.5272 144.789L40.6976 133.732L59.8328 144.789L40.6976 155.822L21.5272 144.789Z" fill="#CDEAFA"/>
    <path d="M40.6992 203.707V160.43L13.591 144.789L12.7937 187.597L40.6992 203.707Z" fill="#76A7F0"/>
    <path d="M40.6985 203.249L67.8067 187.597V144.789L40.6985 160.43V203.249Z" fill="#90BDE6"/>
    <path d="M58.3112 157.43L51.6514 161.275L64.971 168.955L71.5721 165.086L58.3112 157.43Z" fill="#CDEAFA"/>
    <path d="M58.3112 172.789L51.6514 176.623L64.971 184.314L71.5721 180.445L58.3112 172.789Z" fill="#CDEAFA"/>
    <path d="M64.9692 192.007L71.6173 188.173L71.5704 165.086L64.9692 168.956V192.007Z" fill="#90BDE6"/>
    <path d="M51.6514 168.955V161.275L64.971 168.955V192.007L51.6514 184.327V176.647L58.3112 180.481V172.801L51.6514 168.955Z" fill="#76A7F0"/>
    <path d="M150.021 188.992L159.94 182.907L417.925 331.767L407.748 338.005L150.021 188.992Z" fill="#969FB5"/>
    <path d="M161.356 0.172852V183.857L151.449 189.297V6.25813L161.356 0.172852Z" fill="#67809E"/>
    <path d="M150.021 6.27002V189.297L407.748 338.005V155.271L150.021 6.27002ZM400.736 329.81L154.136 187.644V20.3635L400.736 162.846V329.81Z" fill="#76A7F0"/>
    <path d="M417.923 332.061L417.794 332.354L407.745 338.006V155.271L417.923 149.034V332.061Z" fill="#90BDE6"/>
    <path d="M150.02 6.25813L159.939 0.172852L417.925 149.033L407.747 155.271L150.02 6.25813Z" fill="#CDEAFA"/>
    <path d="M99.2801 204.188L0.156982 262.086L257.884 410.454L357.007 352.52L99.2801 204.188Z" fill="#CDEAFA"/>
    <path d="M0.157227 272.895V262.085L257.884 410.453V421.604L0.157227 272.895Z" fill="#76D3F0"/>
    <path d="M357.005 364.386V352.52L257.882 410.453V421.604L357.005 364.386Z" fill="#90BDE6"/>
    <path d="M66.2862 266.916L51.0789 275.698L218.336 372.195L233.543 363.424L66.2862 266.916Z" fill="#CDEAFA"/>
    <path d="M51.0789 283.414V275.699L218.336 372.195L233.543 363.425V371.14L218.242 379.852L51.0789 283.414Z" fill="#76D3F0"/>
    <path d="M374.851 367.165L296.106 413.15L376.105 459.183L454.839 413.15L374.851 367.165Z" fill="#CDEAFA"/>
    <path d="M296.105 421.733V413.15L376.105 459.183V468.035L296.105 421.733Z" fill="#76A7F0"/>
    <path d="M454.84 422.577V413.15L376.106 459.183V468.035L454.84 422.577Z" fill="#90BDE6"/>
    <path d="M117.284 40.3647V186.271L375.011 334.979V189.085L117.284 40.3647Z" fill="#7BA6D8" fill-opacity="0.8" stroke="white" stroke-width="1.1725" stroke-miterlimit="10"/>
    <path d="M375.011 189.073L117.284 40.3647" stroke="white" stroke-width="1.1725" stroke-miterlimit="10"/>
    <path d="M264.013 124.633V270.797L375.014 335.108V188.956L264.013 124.633Z" stroke="white" stroke-width="1.1725" stroke-miterlimit="10"/>
    <path d="M117.284 26.1318V40.366L375.012 189.086V174.84L117.284 26.1318Z" fill="white" fill-opacity="0.8" stroke="white" stroke-width="1.1725" stroke-miterlimit="10"/>
    <path d="M131.858 120.998V107.42L138.893 111.501V114.221L141.238 115.581V118.301L138.893 116.941V119.661L141.238 121.021V123.73L138.893 122.37V125.09L131.858 120.998ZM138.893 122.37V119.661L134.203 116.941V119.65L138.893 122.37ZM134.203 114.162L138.893 116.882V114.221L134.203 111.501V114.162Z" fill="white"/>
    <path d="M143.687 127.823V114.222L150.722 118.302V121.022L146.032 118.302V121.022L150.722 123.742V126.463L146.032 123.742V126.463L150.722 129.183V131.903L143.687 127.823Z" fill="white"/>
    <path d="M153.104 133.264V119.663L160.139 123.743V126.463L155.449 123.743V126.463L160.139 129.183V131.903L155.519 129.148V131.868L160.209 134.589V137.356L153.104 133.264Z" fill="white"/>
    <path d="M162.554 138.715V125.114L169.589 129.194V131.914L171.934 133.274V135.995L169.589 134.634V137.355L164.899 134.634V140.075L162.554 138.715ZM169.659 134.646V131.926L164.899 129.147V131.867L169.659 134.646Z" fill="white"/>
    <path d="M181.421 149.596V136.007L188.456 140.087V142.807L190.801 144.167V146.888L188.456 145.528V148.248L190.801 149.608V152.316L188.456 150.956V153.676L181.421 149.596ZM188.456 150.956V148.259L183.766 145.539V148.248L188.456 150.956ZM183.766 142.807L188.456 145.528V142.807L183.766 140.087V142.807Z" fill="white"/>
    <path d="M195.607 155.06L193.262 153.699V145.492L195.607 146.852V144.132L200.297 146.852V149.572L202.642 150.932V159.14L200.297 157.78V160.5L195.607 157.78V155.06ZM195.607 155.06L200.297 157.78V149.572L195.607 146.852V155.06Z" fill="white"/>
    <path d="M207.415 161.873L205.07 160.512V152.305L207.415 153.665V150.945L212.105 153.665V156.385L214.45 157.745V165.953L212.105 164.593V167.313L207.415 164.593V161.873ZM207.415 161.873L212.105 164.593V156.385L207.415 153.665V161.873Z" fill="white"/>
    <path d="M216.829 170.033V156.432L223.864 160.512V163.232L226.209 164.592V167.312L223.864 165.952V168.673L219.174 165.952V171.393L216.829 170.033ZM223.934 165.964V163.244L219.244 160.524V163.244L223.934 165.964Z" fill="white"/>
    <path d="M231.015 175.486V178.206L228.67 176.846V174.125L231.015 175.486ZM231.015 164.605V172.812L228.67 171.452V163.245L231.015 164.605Z" fill="white"/>
    <rect width="36.8795" height="4.18831" rx="2.09416" transform="matrix(-0.857357 -0.514723 0.119422 -0.815231 344.164 185.397)" fill="#767BF0"/>
    <rect width="36.8795" height="4.18831" rx="2.09416" transform="matrix(-0.857357 -0.514723 0.119422 -0.815231 344.164 185.397)" fill="#767BF0"/>
    <rect width="58.3537" height="4.18831" rx="2.09416" transform="matrix(-0.857357 -0.514723 0.119422 -0.815231 355.5 200.163)" fill="#76D3F0"/>
    <rect width="58.3537" height="4.18831" rx="2.09416" transform="matrix(-0.857357 -0.514723 0.119422 -0.815231 355.5 200.163)" fill="#76D3F0"/>
    <rect width="57.42" height="4.18831" rx="2.09416" transform="matrix(-0.857357 -0.514723 0.119422 -0.815231 341.663 202.469)" fill="white"/>
    <rect width="57.42" height="4.18831" rx="2.09416" transform="matrix(-0.857357 -0.514723 0.119422 -0.815231 341.663 202.469)" fill="white"/>
    <rect width="36.8795" height="4.18831" rx="2.09416" transform="matrix(-0.857357 -0.514723 0.119422 -0.815231 339.305 218.566)" fill="#EE76F0"/>
    <rect width="36.8795" height="4.18831" rx="2.09416" transform="matrix(-0.857357 -0.514723 0.119422 -0.815231 339.305 218.566)" fill="#EE76F0"/>
    <rect width="58.3537" height="4.18831" rx="2.09416" transform="matrix(-0.857357 -0.514723 0.119422 -0.815231 350.641 233.332)" fill="#F8CD79"/>
    <rect width="58.3537" height="4.18831" rx="2.09416" transform="matrix(-0.857357 -0.514723 0.119422 -0.815231 350.641 233.332)" fill="#F8CD79"/>
    <rect width="57.42" height="4.18831" rx="2.09416" transform="matrix(-0.857357 -0.514723 0.119422 -0.815231 336.804 235.638)" fill="white"/>
    <rect width="57.42" height="4.18831" rx="2.09416" transform="matrix(-0.857357 -0.514723 0.119422 -0.815231 336.804 235.638)" fill="white"/>
    <rect width="36.8795" height="4.18831" rx="2.09416" transform="matrix(-0.857357 -0.514723 0.119422 -0.815231 334.589 250.759)" fill="#767BF0"/>
    <rect width="36.8795" height="4.18831" rx="2.09416" transform="matrix(-0.857357 -0.514723 0.119422 -0.815231 334.589 250.759)" fill="#767BF0"/>
    <rect width="58.3537" height="4.18831" rx="2.09416" transform="matrix(-0.857357 -0.514723 0.119422 -0.815231 345.925 265.525)" fill="#76D3F0"/>
    <rect width="58.3537" height="4.18831" rx="2.09416" transform="matrix(-0.857357 -0.514723 0.119422 -0.815231 345.925 265.525)" fill="#76D3F0"/>
    <rect width="57.42" height="4.18831" rx="2.09416" transform="matrix(-0.857357 -0.514723 0.119422 -0.815231 332.088 267.831)" fill="white"/>
    <rect width="57.42" height="4.18831" rx="2.09416" transform="matrix(-0.857357 -0.514723 0.119422 -0.815231 332.088 267.831)" fill="white"/>
    <rect width="36.8795" height="4.18831" rx="2.09416" transform="matrix(-0.857357 -0.514723 0.119422 -0.815231 329.73 283.928)" fill="#EE76F0"/>
    <rect width="36.8795" height="4.18831" rx="2.09416" transform="matrix(-0.857357 -0.514723 0.119422 -0.815231 329.73 283.928)" fill="#EE76F0"/>
    <rect width="58.3537" height="4.18831" rx="2.09416" transform="matrix(-0.857357 -0.514723 0.119422 -0.815231 341.066 298.694)" fill="#F8CD79"/>
    <rect width="58.3537" height="4.18831" rx="2.09416" transform="matrix(-0.857357 -0.514723 0.119422 -0.815231 341.066 298.694)" fill="#F8CD79"/>
    <rect width="57.42" height="4.18831" rx="2.09416" transform="matrix(-0.857357 -0.514723 0.119422 -0.815231 327.229 301)" fill="white"/>
    <rect width="57.42" height="4.18831" rx="2.09416" transform="matrix(-0.857357 -0.514723 0.119422 -0.815231 327.229 301)" fill="white"/>
    </svg>
