<svg width="69" height="51" viewBox="0 0 69 51" fill="none" xmlns="http://www.w3.org/2000/svg">
    <rect width="5.59551" height="5.59551" fill="#A2B9E1"/>
    <rect x="13.1897" width="5.59551" height="5.59551" fill="#A2B9E1"/>
    <rect x="1.61523" y="5.57227" width="5.59551" height="5.59551" fill="#A2B9E1"/>
    <rect x="11.7273" y="5.57227" width="5.59551" height="5.59551" fill="#A2B9E1"/>
    <rect x="3.23047" y="11.1445" width="5.59551" height="5.59551" fill="#A2B9E1"/>
    <rect x="10.2649" y="11.1445" width="5.59551" height="5.59551" fill="#A2B9E1"/>
    <path d="M42.6465 3.95703L48.242 3.95703V9.67255H42.6465V3.95703Z" fill="#A2B9E1"/>
    <path d="M45.7241 0L51.3196 0V5.71552H45.7241V0Z" fill="#A2B9E1"/>
    <path d="M62.8706 0L68.4661 0V5.71552H62.8706V0Z" fill="#A2B9E1"/>
    <path d="M62.8706 8.79297H68.4661V14.5085H62.8706V8.79297Z" fill="#A2B9E1"/>
    <path d="M62.8706 16.707H68.4661V22.4225H62.8706V16.707Z" fill="#A2B9E1"/>
    <rect x="45.7241" y="17.1465" width="5.59551" height="5.59551" fill="#A2B9E1"/>
    <path d="M41.7673 17.1465H47.4829V11.2111H41.7673V17.1465Z" fill="#A2B9E1"/>
    <rect x="6.60425" y="16.7168" width="5.59551" height="5.59551" fill="#A2B9E1"/>
    <rect x="35.9314" y="50.8892" width="5.59551" height="5.59551" transform="rotate(-180 35.9314 50.8892)" fill="#A2B9E1"/>
    <rect x="22.7417" y="50.8896" width="5.59551" height="5.59551" transform="rotate(-180 22.7417 50.8896)" fill="#A2B9E1"/>
    <rect x="34.3162" y="45.3174" width="5.59551" height="5.59551" transform="rotate(-180 34.3162 45.3174)" fill="#A2B9E1"/>
    <path d="M29.0403 45.3174H18.6086V39.7219H29.0403V45.3174Z" fill="#A2B9E1"/>
    <rect x="32.7009" y="39.7451" width="5.59551" height="5.59551" transform="rotate(-180 32.7009 39.7451)" fill="#A2B9E1"/>
    <rect x="25.6663" y="39.7451" width="5.59551" height="5.59551" transform="rotate(-180 25.6663 39.7451)" fill="#A2B9E1"/>
    <rect x="29.3269" y="34.1729" width="5.59551" height="5.59551" transform="rotate(-180 29.3269 34.1729)" fill="#A2B9E1"/>
    <rect x="40.0085" y="8.35352" width="5.59551" height="5.59551" fill="#A2B9E1"/>
    <rect x="24.1812" width="5.71552" height="22.4224" fill="#A2B9E1"/>
    <rect x="1.31885" y="28.5776" width="5.71552" height="22.4224" fill="#A2B9E1"/>
    <rect x="7.03442" y="51" width="5.71552" height="7.47414" transform="rotate(-90 7.03442 51)" fill="#A2B9E1"/>
    <rect x="38.6897" y="28.5776" width="5.71552" height="22.4224" fill="#A2B9E1"/>
    <rect x="48.802" y="28.5776" width="5.71552" height="22.4224" fill="#A2B9E1"/>
    <rect x="44.4055" y="51" width="5.71552" height="5.71552" transform="rotate(-90 44.4055 51)" fill="#A2B9E1"/>
    <rect x="44.4055" y="42.6465" width="5.71552" height="5.71552" transform="rotate(-90 44.4055 42.6465)" fill="#A2B9E1"/>
    <rect x="44.4055" y="34.293" width="5.71552" height="5.71552" transform="rotate(-90 44.4055 34.293)" fill="#A2B9E1"/>
    <rect x="57.1553" y="51" width="5.71552" height="11.431" transform="rotate(-90 57.1553 51)" fill="#A2B9E1"/>
    <rect x="62.8708" y="42.6465" width="5.71552" height="1.31897" transform="rotate(-90 62.8708 42.6465)" fill="#A2B9E1"/>
    <rect x="64.1897" y="42.6465" width="5.71552" height="4.39655" transform="rotate(-90 64.1897 42.6465)" fill="#A2B9E1"/>
    <rect x="62.8708" y="34.293" width="5.71552" height="5.71552" transform="rotate(-90 62.8708 34.293)" fill="#A2B9E1"/>
    <rect x="57.1553" y="34.293" width="5.71552" height="5.71552" transform="rotate(-90 57.1553 34.293)" fill="#A2B9E1"/>
    <rect x="57.1553" y="42.6465" width="8.35345" height="5.71552" transform="rotate(-90 57.1553 42.6465)" fill="#A2B9E1"/>
    <rect x="62.8708" y="47.043" width="8.35345" height="5.71552" transform="rotate(-90 62.8708 47.043)" fill="#A2B9E1"/>
    <rect x="57.1553" width="5.71552" height="22.4224" fill="#A2B9E1"/>
    <rect x="34.2932" width="5.71552" height="22.4224" fill="#A2B9E1"/>
    </svg>
