<svg id="Layer_1" data-name="Layer 1" xmlns="http://www.w3.org/2000/svg" viewBox="0 0 1353.78 322.22"><defs><style>.cls-1{fill:#4274ff;}.cls-2{fill:#1f5eea;}</style></defs><path class="cls-1" d="M146.71,233.86c-15.11,4.62-27.76,6.48-45.34,6.48C51.1,240.34,22.1,208,22.1,155.21,22.1,100,52.33,18.27,136.84,18.27c16.66,0,29,2.77,44.42,8.32l12,4.32c2.15.93,2.77,2.47,1.85,4.32L183.42,58.05q-1.39,2.78-4.63,1.85l-12.65-4.62c-9.87-3.7-18.2-5.25-32.07-5.25C77.93,50,57.88,114.5,57.88,154c0,35.78,16,54.29,47.19,54.29,12,0,22.52-1.54,36.4-5.86l14.19-4.32c2.15-.92,3.7,0,4,2.16l4.93,24.67c.31,2.16-.31,3.4-2.47,4Z"/><path class="cls-1" d="M345.34,145.34c0,38.86-22.2,95-83.58,95-39.17,0-61.69-23.44-61.69-61.38,0-39.48,22.52-94.69,83.59-94.69C322.83,84.27,345.34,107.4,345.34,145.34ZM234,176.8c0,20.66,10.18,32.38,28.68,32.38,36.09,0,48.74-38.55,48.74-61.68,0-20.67-10.18-32.39-28.69-32.39C246.34,115.11,234,153.67,234,176.8Z"/><path class="cls-1" d="M472.73,222.14c-1.24-4-3.39-3.7-7.41-.31a65.9,65.9,0,0,1-45,18.2c-36.08,0-53.35-23.13-46.88-59.53l15.12-90.06c.3-2.16,1.54-3.09,3.7-3.09H420c2.46,0,3.39,1.24,3.08,3.7l-14.8,88.22c-3.4,19.43,4,29.91,19.73,29.91,23.75,0,40.72-18.19,46-47.8l11.72-70.94c.31-2.16,1.54-3.09,3.7-3.09h27.76c2.47,0,3.4,1.24,3.09,3.7L496.48,233.86c-.31,2.16-1.55,3.08-3.7,3.08H477.35c-2.16,0-3.39-1.23-3.7-3.39Z"/><path class="cls-1" d="M643.91,112c-.31,2.16-1.54,3.08-3.7,3.08-33.93,1.24-52.43,25-62.3,81.74l-5.86,37c-.31,2.16-1.54,3.08-3.7,3.08H540.59c-2.47,0-3.39-1.23-3.09-3.7l23.75-142.8c.31-2.16,1.55-3.09,3.7-3.09h15.73c2.16,0,3.09.93,3.4,3.09L586.54,108c.93,3.08,2.47,4,5.56.62,15.11-16,30.53-23.44,52.74-24.37,2.16,0,3.39,1.23,3.08,3.7Z"/><path class="cls-1" d="M703.14,170.32c-22.21-5.86-32.7-17-32.7-34.54,0-27.45,19.13-51.51,62.92-51.51a157,157,0,0,1,38.87,5.24l13.57,3.7c2.46.62,3.08,2.16,2.16,4.32l-10.8,22.83c-.93,1.85-2.16,2.46-4.32,1.85l-12-3.4a107.05,107.05,0,0,0-28.37-3.7c-17.28,0-28.07,6.79-28.07,17,0,5.24,3.7,8.63,11.41,10.79l29.61,8.33c22.52,6.17,33.62,17.58,33.62,36.09,0,23.74-15.11,53.05-64.77,53.05a162.3,162.3,0,0,1-46.88-6.79L655,229.85c-2.16-.62-2.77-2.16-1.85-4.32L664,203c.92-1.86,2.15-2.47,4.31-1.86l9.56,2.78c11.42,3.7,27.45,5.24,37.63,5.24,20.67,0,29.61-9.25,29.61-18.81,0-5.55-3.39-9.25-12-11.72Z"/><path class="cls-1" d="M903.31,236a114.84,114.84,0,0,1-30.84,4.32c-40.41,0-62.31-23.44-62.31-61.38,0-39.79,21.9-94.69,83.28-94.69,33.31,0,53,15.73,53,41.64,0,23.44-11.72,43.49-52.74,49.66l-49.66,7.09c.31,16,9.87,26.52,29.3,26.52a111.43,111.43,0,0,0,27.45-3.39l14.19-3.7c2.47-.62,3.7.31,4,2.78l2.16,23.74q.46,3.24-2.78,3.71Zm-12.65-86.36c16.66-2.47,22.52-10.49,22.52-19.13,0-9.56-7.71-15.42-21.59-15.42-21.28,0-37.94,12.65-45.65,41Z"/><path class="cls-2" d="M1148.18,147.87c-10.46,59.73-48,92-101.59,92-56.34,0-82.81-35.4-72.34-94.82L996.1,22c.31-2.46,1.85-3.69,4.31-3.69H1042c2.78,0,4,1.54,3.7,4.31L1023.5,147.87c-5.54,31.71,4.31,47.72,26.48,47.72,25.24,0,43.71-19.08,49.26-50.49L1121.09,22c.31-2.46,1.85-3.69,4.31-3.69H1167c2.77,0,4,1.54,3.39,4.31Z"/><path class="cls-2" d="M1225.77,93.69c2.77,5.54,3.7,5.85,10.78.62A60.54,60.54,0,0,1,1273.8,82c36.94,0,57.87,23.4,57.87,61.27,0,40.32-22.47,96.66-84.66,96.66-10.16,0-16.93-1.23-22.78-4l-7.08-3.38-12,67.72c-.31,2.47-1.85,3.7-4.31,3.7h-40.95c-2.77,0-4-1.54-3.69-4.31l36.94-210.58c.31-2.46,1.85-3.69,4.31-3.69h21.24a4.38,4.38,0,0,1,4.62,3.08Zm3.7,100.05a43.13,43.13,0,0,0,15.7,3.08c28.63,0,38.79-31.09,38.79-48.95,0-14.47-6.78-22.47-20.94-22.47-17.24,0-29.86,11.39-33.25,30.17l-6.15,36Z"/></svg>