<?xml version="1.0" standalone="no"?>
<!DOCTYPE svg PUBLIC "-//W3C//DTD SVG 20010904//EN"
 "http://www.w3.org/TR/2001/REC-SVG-20010904/DTD/svg10.dtd">
<svg version="1.0" xmlns="http://www.w3.org/2000/svg"
 width="260.000000pt" height="260.000000pt" viewBox="0 0 260.000000 260.000000"
 preserveAspectRatio="xMidYMid meet">
<metadata>
Created by potrace 1.11, written by Peter Selinger 2001-2013
</metadata>
<g transform="translate(0.000000,260.000000) scale(0.100000,-0.100000)"
fill="#000000" stroke="none">
<path d="M560 2355 c-1 -5 -2 -14 0 -20 1 -5 -4 -4 -11 2 -9 9 -16 10 -26 2
-10 -9 -13 -8 -13 2 0 11 -2 11 -10 -1 -8 -13 -10 -13 -10 0 0 11 -3 11 -12 2
-16 -16 -31 -15 -22 1 5 8 3 8 -9 -2 -9 -7 -14 -18 -10 -24 3 -6 1 -7 -6 -3
-6 4 -9 12 -6 17 4 5 1 9 -4 9 -6 0 -11 -7 -11 -15 0 -8 -5 -15 -11 -15 -5 0
-7 6 -3 13 5 9 4 9 -6 0 -7 -6 -20 -9 -29 -6 -12 4 -10 1 4 -11 11 -10 15 -15
8 -12 -6 4 -14 2 -18 -3 -3 -5 -14 -8 -25 -6 -12 2 -18 0 -15 -6 5 -8 -7 -13
-26 -11 -4 1 -4 -9 -1 -21 4 -18 3 -20 -9 -10 -11 9 -18 8 -33 -3 -11 -8 -15
-14 -10 -14 6 0 15 5 21 11 9 9 12 7 10 -8 -1 -14 -6 -19 -17 -15 -13 5 -13 3
-1 -11 12 -15 12 -17 -3 -11 -9 3 -16 11 -16 17 0 6 -3 7 -6 4 -4 -4 -1 -14 7
-24 9 -11 10 -14 2 -9 -9 5 -12 -1 -9 -22 2 -18 -2 -29 -10 -29 -9 0 -10 5 -3
18 6 12 5 20 -3 25 -7 4 -8 3 -4 -4 4 -7 3 -12 -2 -12 -5 0 -9 -58 -9 -130 -1
-74 3 -127 8 -124 5 3 9 -2 9 -10 0 -10 9 -16 23 -17 21 0 21 -1 2 -9 -18 -8
-16 -10 14 -14 5 0 13 -4 16 -8 4 -4 -5 -5 -21 -2 -19 3 -24 1 -16 -4 20 -13
57 -8 54 7 -1 7 2 10 7 6 6 -3 7 -13 4 -23 -4 -13 -3 -14 6 -6 7 6 13 21 14
33 1 11 5 21 10 21 5 0 7 -7 4 -14 -4 -10 -1 -13 9 -9 8 3 13 11 10 19 -6 17
17 37 30 24 6 -6 15 -5 24 1 13 9 12 10 -2 5 -10 -3 -18 -1 -18 4 0 6 7 10 16
10 8 0 12 5 9 10 -3 6 -1 10 5 10 6 0 9 4 6 9 -4 5 3 7 14 4 12 -3 20 0 20 7
0 7 7 10 16 6 8 -3 12 -2 9 4 -3 6 -1 10 4 10 6 0 11 5 11 11 0 8 -5 7 -15 -1
-28 -23 -21 -6 9 23 16 17 26 21 22 12 -4 -11 -2 -15 6 -12 7 2 12 10 10 17
-2 8 4 11 17 7 15 -3 18 -1 14 11 -5 11 -3 13 8 7 12 -7 12 -6 -1 11 -8 10
-11 16 -6 12 13 -11 65 12 60 27 -3 7 0 16 7 21 7 4 10 3 6 -3 -3 -5 0 -10 8
-10 8 0 14 3 13 6 -2 21 4 31 14 25 7 -5 9 -2 5 9 -6 16 15 41 26 30 4 -3 7
-1 7 5 0 6 9 9 20 7 12 -2 18 0 14 6 -3 6 4 20 16 31 15 14 18 23 11 28 -7 3
-9 15 -5 26 3 11 2 14 -3 8 -9 -13 -45 -15 -37 -2 3 5 9 6 13 4 4 -3 8 1 8 9
0 8 -4 12 -9 9 -5 -3 -14 -1 -21 5 -8 6 -18 6 -27 1 -21 -14 -27 -12 -34 6 -5
14 -4 15 8 5 10 -8 16 -9 21 -1 4 6 3 10 -2 9 -4 -1 -10 -1 -13 1 -3 1 -16 3
-29 6 -21 4 -22 3 -10 -13 12 -16 12 -17 -2 -6 -9 7 -20 9 -24 5 -5 -4 -4 -1
0 7 6 11 4 13 -8 8 -10 -4 -17 0 -20 11 -3 9 -6 13 -7 7z m145 -55 c3 -5 1
-10 -4 -10 -6 0 -11 5 -11 10 0 6 2 10 4 10 3 0 8 -4 11 -10z m-475 -405 c0
-5 -5 -3 -10 5 -5 8 -10 20 -10 25 0 6 5 3 10 -5 5 -8 10 -19 10 -25z"/>
<path d="M2015 2329 c11 -13 13 -18 4 -11 -9 6 -19 9 -22 5 -4 -3 -7 0 -7 7 0
9 -5 7 -16 -6 -11 -13 -14 -14 -11 -3 3 9 -1 16 -8 16 -8 0 -11 -7 -8 -16 5
-13 3 -14 -8 -3 -16 15 -29 16 -29 1 0 -5 5 -7 10 -4 6 3 10 2 10 -3 0 -6 -7
-13 -16 -16 -8 -3 -13 -10 -9 -15 3 -5 1 -12 -4 -16 -6 -3 -8 5 -6 18 4 17 0
23 -15 23 -12 0 -16 -4 -11 -9 11 -11 3 -37 -11 -37 -5 0 -7 4 -3 9 3 5 1 12
-4 15 -19 12 -20 -12 -1 -29 15 -13 17 -22 10 -36 -14 -26 -13 -27 20 -25 23
2 27 -1 18 -11 -10 -12 0 -18 25 -14 4 0 7 -6 7 -15 0 -9 -5 -12 -12 -8 -8 4
-10 3 -5 -2 5 -5 12 -9 15 -9 4 0 14 -4 22 -10 13 -8 13 -7 0 11 -9 12 -9 15
-1 7 7 -6 21 -9 30 -6 12 4 13 3 3 -5 -11 -7 -9 -15 12 -35 14 -14 26 -30 26
-36 0 -5 8 -8 18 -6 25 4 35 -5 21 -21 -10 -12 -9 -13 6 -8 13 5 16 4 11 -4
-10 -16 7 -15 23 1 11 10 11 8 1 -13 -13 -24 -12 -24 5 -10 11 9 16 10 11 3
-8 -14 17 -57 27 -46 4 3 -1 11 -10 18 -13 9 -13 14 -3 20 8 5 11 4 6 -3 -3
-5 0 -12 6 -14 7 -3 13 -13 13 -23 0 -12 8 -19 22 -20 28 -2 34 -7 36 -33 1
-13 6 -18 16 -14 10 4 12 1 6 -9 -8 -12 -6 -12 8 0 10 8 17 9 17 3 0 -20 30
-40 55 -38 13 2 22 -1 19 -5 -3 -5 -16 -7 -29 -5 -14 3 -27 1 -30 -4 -3 -4 3
-7 12 -5 10 1 26 -2 37 -7 14 -8 17 -7 11 3 -6 8 -4 11 7 6 9 -3 21 0 27 6 16
16 14 27 -4 21 -8 -4 -15 -1 -15 6 0 6 5 8 10 5 6 -3 10 1 10 9 0 20 17 29 26
15 4 -8 3 -9 -4 -5 -7 4 -12 2 -12 -3 0 -6 5 -11 11 -11 5 0 7 -5 3 -12 -4 -6
-3 -8 4 -4 11 6 10 26 -3 59 -5 13 -3 16 8 11 8 -3 18 0 23 7 4 8 3 10 -4 5
-7 -4 -12 -1 -12 9 0 10 -5 14 -12 9 -10 -5 -10 -3 0 7 11 11 14 12 21 1 6
-10 10 -9 13 6 5 16 2 19 -11 15 -9 -4 -13 -3 -9 2 4 4 2 15 -5 23 -11 13 -9
14 13 2 21 -11 23 -11 14 1 -6 8 -10 33 -9 57 1 29 -2 41 -10 39 -6 -3 -19 1
-30 9 -10 8 -13 14 -7 14 7 0 11 3 11 8 -3 19 2 33 11 27 6 -3 7 1 4 10 -6 14
-8 14 -20 -2 -13 -16 -14 -16 -10 10 3 16 1 25 -5 22 -5 -4 -7 -10 -4 -15 3
-5 2 -11 -3 -14 -4 -2 -9 6 -10 20 -3 45 -5 53 -13 49 -10 -7 -30 21 -21 30 4
5 1 5 -6 1 -11 -6 -8 -13 9 -32 26 -27 19 -33 -7 -6 -10 9 -22 17 -27 17 -6 0
-12 7 -14 15 -4 12 -3 12 5 2 8 -11 10 -11 15 0 3 9 -3 14 -16 16 -12 0 -23 6
-25 12 -3 8 -8 8 -17 0 -9 -7 -16 -6 -25 5 -7 8 -17 12 -24 8 -6 -4 -5 1 3 10
12 16 12 17 -10 9 -18 -7 -27 -5 -37 7 -7 9 -11 10 -7 4 7 -15 -11 -18 -20 -3
-3 6 -12 10 -18 10 -7 0 -6 -4 3 -10 8 -5 10 -10 5 -10 -6 0 -16 5 -23 12 -9
9 -12 9 -12 1 0 -12 -42 -9 -64 4 -6 4 -2 -4 9 -18z m405 -249 c0 -5 -2 -10
-4 -10 -3 0 -8 5 -11 10 -3 6 -1 10 4 10 6 0 11 -4 11 -10z"/>
<path d="M2214 2326 c1 -8 5 -18 8 -22 4 -3 5 1 4 10 -1 8 -5 18 -8 22 -4 3
-5 -1 -4 -10z"/>
<path d="M1332 2265 c-6 -11 -12 -15 -12 -8 0 13 -183 14 -196 1 -4 -4 3 -5
15 -3 12 2 19 0 16 -5 -3 -5 -19 -7 -35 -5 -17 2 -28 0 -25 -5 6 -10 -14 -8
-32 3 -6 4 -14 3 -18 -3 -4 -6 -11 -8 -16 -5 -5 4 -9 1 -9 -6 0 -10 -3 -10
-11 -2 -13 13 -39 6 -39 -9 0 -6 8 -4 18 3 15 12 16 12 4 -2 -7 -10 -25 -16
-45 -15 -22 2 -36 -4 -45 -18 -7 -12 -11 -14 -9 -6 3 11 -2 16 -17 17 -11 0
-15 -1 -8 -4 6 -3 12 -9 12 -14 0 -6 -4 -7 -10 -4 -5 3 -10 2 -10 -4 0 -6 -6
-8 -13 -5 -8 3 -19 -5 -26 -18 -6 -13 -9 -15 -7 -6 3 10 1 20 -5 23 -5 4 -9 3
-8 -2 1 -4 1 -15 0 -23 -1 -13 -2 -13 -11 0 -8 13 -10 13 -10 -2 0 -11 -5 -15
-14 -12 -9 3 -20 -3 -28 -15 -7 -12 -21 -21 -31 -21 -9 0 -22 -11 -27 -25 -5
-14 -12 -25 -14 -25 -3 0 -2 7 1 17 4 11 3 14 -5 9 -7 -4 -12 -14 -12 -22 0
-9 -5 -12 -12 -8 -8 5 -9 2 -4 -11 6 -16 4 -16 -11 -4 -15 12 -16 12 -10 -5 5
-13 3 -17 -7 -13 -8 3 -17 -1 -20 -9 -4 -10 -2 -12 6 -8 7 5 8 3 4 -5 -5 -7
-14 -10 -22 -7 -7 3 -17 0 -21 -7 -8 -12 -9 -17 -12 -37 0 -5 -7 -7 -15 -4 -8
3 -17 0 -22 -7 -4 -7 -3 -10 4 -5 6 3 13 2 17 -4 6 -9 -8 -15 -29 -11 -5 1 -6
-5 -3 -14 4 -9 1 -15 -8 -15 -7 0 -17 -5 -21 -12 -4 -7 -3 -8 4 -4 7 4 12 2
12 -3 0 -6 -5 -11 -11 -11 -6 0 -9 -6 -6 -14 4 -10 -1 -12 -16 -9 -18 4 -19 3
-7 -6 13 -9 13 -11 -1 -11 -11 0 -15 -8 -13 -26 2 -22 0 -23 -14 -12 -13 11
-14 11 -8 -1 5 -8 3 -17 -5 -22 -11 -7 -11 -9 -1 -9 10 0 10 -3 0 -14 -7 -8
-16 -12 -20 -10 -3 2 -5 -7 -3 -21 1 -14 -1 -25 -5 -25 -4 0 -11 -7 -14 -16
-4 -10 -2 -13 7 -7 6 4 4 -4 -5 -17 -31 -44 -41 -63 -29 -56 6 4 11 3 11 -2 0
-6 -7 -13 -16 -16 -12 -4 -13 -10 -6 -19 6 -6 12 -14 14 -17 1 -3 -7 -19 -20
-37 -25 -35 -27 -43 -11 -43 5 0 8 4 5 9 -3 5 2 15 11 22 15 12 16 12 8 -1
-10 -15 -11 -20 -14 -41 0 -5 -5 -8 -9 -5 -10 6 -10 -34 1 -50 4 -7 0 -17 -8
-24 -8 -7 -12 -17 -8 -23 4 -6 6 -51 5 -99 -1 -63 2 -87 10 -82 7 5 8 2 3 -6
-12 -19 -15 -79 -4 -86 5 -3 6 1 3 9 -3 8 -1 18 5 22 7 3 8 0 5 -9 -4 -10 -1
-16 7 -16 8 0 6 -5 -6 -13 -14 -11 -15 -16 -5 -22 9 -6 11 -4 5 6 -5 8 -4 11
1 6 5 -5 9 -12 9 -15 0 -4 4 -13 8 -19 6 -9 3 -11 -10 -6 -16 6 -16 5 -4 -10
7 -9 11 -28 9 -42 -4 -21 -3 -23 9 -13 8 6 13 7 12 2 -5 -26 2 -45 14 -38 10
6 10 4 0 -7 -16 -17 -17 -33 -1 -23 8 5 9 2 5 -9 -4 -11 -1 -17 8 -17 8 0 15
-4 15 -10 0 -5 -8 -6 -17 -3 -15 6 -16 5 -3 -9 8 -9 19 -13 24 -10 5 3 6 0 2
-7 -4 -6 1 -19 11 -29 10 -9 14 -14 9 -10 -26 20 -26 5 0 -18 16 -15 23 -23
16 -19 -11 6 -12 3 -2 -14 6 -12 18 -25 26 -28 8 -3 14 -9 14 -15 0 -5 -6 -6
-12 -2 -9 5 -9 2 1 -9 7 -9 23 -17 34 -17 16 0 18 -3 9 -12 -8 -8 -6 -16 10
-30 12 -10 25 -18 30 -18 4 0 8 -5 8 -11 0 -5 -6 -7 -13 -3 -8 5 -8 2 2 -9 7
-9 20 -17 29 -17 8 0 12 -3 9 -7 -4 -3 1 -12 11 -19 15 -11 14 -12 -11 -10
-21 3 -25 1 -16 -10 13 -16 4 -34 -19 -34 -15 0 -15 -2 -2 -10 13 -8 13 -10
-2 -10 -9 0 -20 -5 -24 -12 -5 -7 -2 -9 7 -4 8 4 6 1 -3 -7 -10 -8 -15 -17
-12 -20 3 -3 -4 -11 -16 -17 -12 -6 -19 -18 -16 -25 3 -9 -2 -12 -15 -10 -17
3 -19 2 -9 -10 10 -12 8 -13 -9 -10 -18 3 -20 1 -11 -14 5 -10 7 -21 3 -24 -3
-3 2 -13 11 -22 15 -15 16 -15 16 1 0 16 1 16 15 -2 10 -13 14 -14 15 -5 0 11
3 11 17 0 10 -8 14 -9 10 -2 -7 11 23 11 86 -2 9 -2 15 0 13 3 -2 4 15 7 39 7
24 0 42 -2 40 -5 -2 -3 5 -6 16 -6 10 0 19 4 19 8 0 4 5 8 11 8 5 0 7 -6 3
-12 -5 -10 -4 -10 6 -1 7 6 19 9 28 6 11 -5 13 -3 7 8 -7 11 -5 11 10 -1 10
-8 16 -10 12 -3 -4 7 0 17 10 23 13 9 14 10 2 7 -9 -3 -16 1 -16 8 0 7 7 11
15 8 8 -4 19 2 24 12 8 14 12 15 19 4 6 -10 9 -11 9 -1 0 6 5 12 11 12 5 0 8
-4 5 -9 -3 -5 1 -12 10 -15 8 -3 12 -2 9 4 -10 16 0 12 26 -11 13 -11 31 -18
41 -16 12 4 18 0 18 -11 0 -13 3 -12 15 4 14 19 15 19 21 -3 7 -25 29 -31 37
-10 4 9 6 9 6 0 1 -7 8 -10 18 -6 9 4 14 2 10 -3 -4 -7 6 -9 25 -6 24 4 29 2
23 -9 -6 -11 -5 -12 6 -2 20 20 31 15 25 -9 l-6 -23 11 23 c14 26 34 30 25 4
-5 -14 -4 -14 9 2 10 14 15 15 15 6 0 -11 3 -11 12 -2 7 7 17 12 23 12 5 0 4
-4 -3 -9 -10 -6 -8 -10 8 -14 15 -4 20 -2 16 8 -5 14 18 15 31 0 4 -4 1 -5 -7
0 -12 7 -13 6 -2 -6 11 -12 14 -12 22 1 5 8 6 18 3 24 -3 5 -1 6 6 2 6 -4 9
-11 6 -16 -3 -5 0 -12 6 -16 8 -4 9 -3 5 4 -4 7 -1 12 9 12 9 0 14 -4 11 -8
-3 -5 1 -9 8 -9 9 0 12 7 8 16 -3 9 -2 13 3 9 4 -4 15 -2 24 5 14 11 14 10 2
-5 -16 -21 -13 -22 30 -5 19 7 48 12 66 11 18 -1 37 4 44 12 8 10 16 11 30 3
19 -10 25 -2 19 26 -1 6 4 5 11 -2 6 -6 18 -9 27 -6 11 5 13 3 7 -8 -7 -11 -6
-12 7 -2 8 7 18 10 21 7 4 -4 5 2 3 13 -3 12 1 20 9 20 8 0 12 -5 9 -11 -3 -6
1 -3 9 7 11 14 16 15 20 5 4 -11 6 -11 6 0 1 7 6 10 11 7 6 -3 10 -1 10 6 0
10 3 10 12 1 9 -9 15 -9 27 1 8 6 12 8 9 2 -3 -5 0 -16 8 -23 8 -7 14 -10 14
-7 0 3 6 0 14 -7 8 -7 12 -16 9 -21 -2 -4 3 -7 12 -7 9 0 14 -4 11 -9 -3 -5 1
-12 10 -15 8 -3 12 -2 9 4 -5 9 36 6 73 -6 7 -2 11 0 8 4 -2 4 15 7 39 7 24 0
41 -4 37 -9 -3 -5 0 -6 5 -3 6 4 33 7 61 8 28 1 57 6 64 10 10 7 10 9 -2 9
-10 0 -5 9 13 26 27 25 27 27 10 41 -10 8 -12 12 -5 8 7 -4 12 0 12 10 0 10
-5 13 -12 9 -8 -5 -7 0 2 11 8 10 10 16 3 12 -7 -5 -17 1 -23 13 -6 11 -15 18
-21 15 -5 -4 -9 -2 -9 2 0 5 -7 18 -15 29 -15 19 -15 19 -9 -1 5 -16 4 -17 -5
-5 -6 8 -11 24 -11 35 0 17 -2 17 -10 5 -8 -13 -10 -13 -10 1 0 9 -7 20 -16
23 -8 3 -12 10 -9 16 3 5 2 10 -3 10 -6 0 -13 7 -16 16 -5 14 -4 15 8 5 13
-11 15 -9 11 8 -2 14 1 18 11 14 8 -3 14 1 14 10 0 8 12 22 26 32 22 14 23 19
12 33 -9 11 -10 14 -1 8 8 -4 17 2 24 18 7 14 15 23 20 21 4 -3 11 0 15 6 4 8
3 9 -4 5 -7 -4 -12 -1 -12 9 0 9 5 13 10 10 6 -3 10 1 10 9 0 9 5 16 10 16 6
0 9 3 9 8 -5 31 2 51 17 45 14 -5 15 -3 4 18 -11 21 -11 22 1 12 12 -9 14 -6
15 18 1 17 -2 26 -9 22 -6 -3 -7 -1 -3 6 4 6 12 9 17 6 5 -4 9 -1 9 5 0 6 5 8
13 4 8 -5 7 -2 -2 10 -12 14 -12 19 -1 29 10 10 11 9 5 -2 -5 -9 -4 -12 3 -7
7 4 8 15 2 30 -4 12 -4 29 0 36 5 8 5 19 -1 26 -6 7 -4 15 5 24 13 10 15 8 11
-9 -2 -11 0 -23 4 -25 11 -7 9 48 -3 56 -7 5 -6 8 3 8 9 0 11 8 7 26 -5 17 -3
23 4 19 7 -4 7 2 1 18 -7 18 -6 30 5 45 8 12 10 23 5 27 -12 7 -11 66 1 82 5
7 5 14 -2 18 -5 3 -10 31 -10 61 0 30 -4 53 -8 50 -4 -2 -9 4 -9 15 -1 10 3
19 8 19 6 0 7 -5 3 -12 -4 -7 -3 -8 4 -4 15 9 3 38 -14 32 -10 -4 -11 1 -4 19
7 18 6 23 -4 19 -7 -3 -13 2 -13 10 0 8 5 12 11 9 6 -4 4 1 -4 11 -8 10 -13
31 -12 47 2 17 -1 29 -8 29 -6 0 -8 -5 -4 -12 4 -7 3 -8 -4 -4 -9 5 -9 13 -2
26 8 15 6 21 -7 29 -11 6 -13 11 -5 11 7 0 10 5 7 10 -4 6 -10 8 -15 5 -4 -3
-11 2 -14 11 -3 8 -2 12 4 9 6 -3 10 -1 10 4 0 6 -7 11 -15 11 -9 0 -12 6 -9
15 4 8 1 15 -5 15 -6 0 -11 5 -11 11 0 5 5 7 12 3 7 -4 8 -3 4 4 -4 7 -15 12
-24 12 -15 0 -15 2 -2 10 12 8 12 10 -5 10 -17 0 -17 2 -5 10 13 9 13 10 0 11
-8 1 -22 1 -30 0 -9 -1 -11 1 -5 6 13 11 18 36 5 28 -6 -4 -10 5 -11 22 0 25
-1 26 -9 8 -9 -20 -15 -7 -11 23 1 7 -4 11 -11 10 -7 -2 -12 3 -10 10 2 10
-17 17 -41 13 -4 0 -6 2 -5 6 1 5 -3 18 -10 29 -6 12 -8 25 -4 29 4 5 1 5 -5
1 -7 -4 -13 -2 -13 4 0 6 -4 8 -10 5 -5 -3 -10 1 -10 9 0 8 -5 18 -12 22 -6 4
-8 3 -5 -3 3 -5 0 -10 -8 -10 -8 0 -12 4 -9 8 2 4 0 10 -6 14 -6 4 -7 11 -4
17 5 7 1 9 -9 5 -9 -3 -19 -2 -22 4 -4 5 -11 6 -17 3 -7 -5 -9 -2 -6 7 2 8 -4
22 -15 32 -19 19 -19 18 -12 -4 7 -22 7 -22 -9 -6 -10 9 -15 21 -11 27 4 6 -1
7 -11 3 -12 -5 -15 -3 -9 6 6 10 3 11 -12 2 -24 -12 -34 -5 -25 17 5 15 4 16
-13 2 -10 -8 -16 -10 -13 -5 4 6 -2 17 -14 24 -11 7 -17 8 -13 2 4 -8 -2 -7
-19 1 -14 6 -26 14 -26 18 0 4 -17 7 -37 7 -29 -1 -38 3 -37 15 1 10 -4 14
-12 11 -8 -3 -21 1 -30 8 -13 10 -17 10 -25 -2 -7 -12 -9 -12 -9 0 0 8 -3 11
-7 8 -3 -4 -13 -1 -21 6 -11 8 -14 8 -9 0 4 -6 3 -14 -3 -18 -5 -3 -10 -1 -10
5 0 6 -4 8 -10 5 -5 -3 -10 -1 -10 4 0 6 5 11 12 11 6 0 8 3 4 7 -4 5 -14 -1
-22 -11 -13 -18 -14 -18 -14 -2 0 11 -5 16 -14 13 -7 -3 -18 -1 -24 5 -6 6
-12 6 -17 -3 -5 -8 -4 -10 3 -5 7 4 12 3 12 -3 0 -5 -9 -9 -20 -8 -13 1 -19 6
-15 16 4 11 3 11 -9 2 -11 -9 -15 -9 -18 1 -3 8 -8 6 -16 -7z m67 -265 c1 10
4 11 12 3 6 -6 18 -9 25 -6 8 3 22 -1 31 -8 11 -10 14 -10 9 -2 -5 9 -2 11 8
7 9 -3 14 -10 11 -14 -6 -10 21 -7 31 3 15 15 26 6 13 -10 -8 -10 -9 -14 -2
-10 6 4 15 3 18 -3 5 -8 11 -7 21 1 10 8 14 8 14 0 0 -6 9 -11 20 -11 12 0 20
-7 21 -17 0 -10 3 -13 5 -6 3 7 12 9 20 6 7 -3 12 -8 10 -12 -2 -3 3 -13 12
-21 14 -13 15 -12 9 4 -7 17 -5 17 10 5 34 -26 52 -47 45 -54 -4 -3 6 -1 22 5
25 9 27 9 17 -4 -10 -12 -8 -16 8 -21 10 -3 22 -13 25 -21 3 -8 10 -12 16 -9
6 4 7 -1 3 -11 -3 -10 -2 -15 3 -12 5 3 18 -3 29 -14 20 -19 20 -19 0 -13 -16
4 -15 3 3 -6 12 -7 22 -16 22 -21 0 -5 5 -6 10 -3 6 3 10 2 10 -4 0 -5 -5 -13
-10 -16 -14 -9 7 -35 27 -35 12 0 13 -3 4 -14 -9 -11 -9 -16 0 -22 8 -4 9 -3
5 4 -4 7 -2 12 5 12 6 0 9 -8 6 -19 -3 -13 0 -18 8 -15 7 3 15 -4 18 -16 4
-17 3 -19 -8 -10 -12 10 -12 7 -2 -14 7 -14 18 -26 25 -26 6 0 12 -5 12 -11 0
-5 -4 -7 -10 -4 -6 3 -7 -1 -4 -9 3 -9 11 -13 18 -9 6 4 5 -1 -3 -10 -9 -11
-10 -17 -2 -17 6 0 10 -3 10 -7 -5 -29 2 -53 14 -47 7 5 6 0 -3 -11 -14 -17
-13 -18 2 -13 14 6 15 2 8 -23 -5 -16 -5 -27 -1 -24 5 2 7 -15 6 -38 -1 -23 3
-48 8 -54 5 -8 6 -13 0 -13 -5 0 -9 -9 -10 -20 -1 -13 2 -18 10 -14 9 5 9 3 0
-6 -10 -11 -10 -17 0 -29 9 -11 9 -13 0 -8 -9 6 -11 -2 -9 -28 1 -19 -2 -35
-7 -35 -5 0 -4 -6 2 -14 9 -10 8 -16 -4 -26 -9 -7 -14 -19 -11 -27 3 -7 -1
-13 -10 -13 -8 0 -12 -5 -9 -10 4 -6 11 -8 16 -5 5 4 9 2 9 -3 0 -6 -8 -13
-17 -16 -15 -6 -15 -8 -3 -16 13 -8 13 -10 1 -10 -8 0 -11 -3 -8 -7 4 -3 -1
-12 -11 -20 -9 -8 -11 -12 -4 -8 6 3 12 2 12 -3 0 -6 -7 -13 -16 -16 -9 -4
-14 -13 -10 -21 3 -8 2 -15 -2 -15 -4 0 -13 -10 -21 -22 -13 -21 -13 -22 3 -9
9 8 19 11 22 9 3 -3 -8 -12 -25 -19 -26 -12 -27 -14 -13 -26 15 -11 14 -12 -6
-8 -12 2 -20 0 -17 -5 7 -12 -5 -41 -15 -35 -8 5 -26 -33 -22 -47 1 -5 -3 -7
-10 -5 -7 1 -13 -4 -14 -10 -3 -27 -5 -28 -14 -13 -7 11 -10 11 -10 2 0 -7 -5
-10 -12 -6 -7 4 -8 3 -4 -5 10 -15 -13 -43 -30 -37 -7 3 -16 1 -19 -4 -4 -6 0
-10 7 -10 7 0 0 -7 -16 -15 -15 -8 -32 -13 -36 -10 -4 3 -14 -3 -21 -13 -13
-16 -13 -16 6 -2 18 14 19 14 7 -2 -7 -9 -22 -15 -33 -13 -16 3 -19 0 -14 -18
5 -16 4 -18 -3 -8 -8 11 -16 11 -50 -4 -23 -10 -39 -21 -37 -25 2 -3 -17 -5
-41 -5 -25 1 -47 -2 -50 -7 -3 -5 -10 -5 -16 -2 -7 4 -8 2 -4 -4 4 -7 1 -12
-9 -12 -11 0 -15 5 -11 16 3 9 2 12 -5 9 -6 -4 -8 -14 -5 -22 5 -13 -2 -14
-44 -10 -37 4 -48 2 -44 -6 5 -8 3 -8 -6 0 -10 9 -17 10 -27 2 -7 -7 -13 -7
-13 -2 0 5 -13 8 -30 7 -16 -1 -30 3 -30 9 0 6 -6 3 -13 -8 -11 -14 -16 -15
-22 -5 -6 9 -4 11 5 5 9 -5 11 -4 6 4 -4 6 -12 9 -17 5 -17 -10 -59 -12 -59
-3 0 5 5 9 10 9 6 0 10 5 10 12 0 9 -3 9 -12 0 -9 -9 -15 -9 -27 1 -12 9 -13
9 -7 0 11 -19 -5 -15 -20 5 -9 11 -13 13 -14 4 0 -8 -5 -10 -12 -5 -7 4 -17 8
-23 9 -28 5 -65 25 -65 35 0 8 -4 8 -15 -1 -13 -11 -14 -10 -9 5 5 12 4 16 -4
11 -6 -3 -14 -1 -18 5 -4 8 -9 7 -16 -2 -7 -10 -8 -5 -3 15 5 26 4 28 -9 17
-9 -8 -17 -11 -17 -7 -1 3 -2 10 -3 15 0 5 -5 13 -10 18 -5 5 -6 3 -2 -4 12
-22 -13 -14 -26 7 -7 11 -19 20 -26 20 -8 0 -10 5 -6 12 5 8 2 9 -12 4 -10 -4
-15 -4 -11 0 10 11 -13 35 -27 27 -6 -4 -6 0 2 9 11 13 10 16 -5 14 -11 0 -17
5 -17 17 1 9 -3 17 -10 17 -15 0 -61 60 -61 79 0 9 -7 22 -17 29 -10 7 -18 18
-18 24 0 7 7 3 16 -8 15 -18 15 -18 4 3 -5 12 -18 27 -28 32 -16 10 -15 10 3
11 17 1 17 3 -5 12 -14 6 -20 12 -13 15 9 3 8 11 -5 31 -14 21 -14 25 -2 18
12 -6 12 -5 -1 6 -11 9 -13 21 -8 40 5 19 4 25 -6 22 -8 -3 -12 3 -11 18 1 13
-2 29 -7 36 -6 8 -5 12 2 12 7 0 9 5 6 10 -10 17 -13 110 -3 110 5 0 6 6 2 12
-11 18 -12 48 -2 48 5 0 4 10 -3 22 -10 18 -9 20 5 15 14 -6 14 -3 -1 21 -16
24 -16 25 -1 14 10 -8 19 -9 22 -3 3 5 1 11 -6 13 -6 2 -12 11 -14 20 -1 12 3
15 14 10 15 -5 15 -3 4 10 -9 11 -10 18 -2 23 6 3 7 11 4 17 -4 7 -2 8 4 4 6
-4 11 1 11 11 2 49 4 53 19 40 13 -10 14 -9 3 11 -8 15 -8 22 -1 22 6 0 8 5 5
10 -5 9 6 14 26 12 3 -1 5 14 4 33 0 18 4 33 10 32 5 -1 9 4 7 11 -1 8 2 11 8
7 9 -6 14 7 11 28 0 4 4 7 10 7 5 0 7 6 3 13 -6 9 -5 9 8 -1 13 -10 15 -9 13
13 -2 14 0 23 5 20 4 -3 10 2 14 10 3 8 13 15 22 15 11 0 14 5 10 16 -5 12 -2
15 10 10 12 -5 15 -2 10 10 -6 15 -4 15 11 3 9 -8 14 -9 11 -4 -4 6 0 19 8 30
10 13 14 15 14 4 0 -12 2 -12 9 0 5 8 14 10 22 5 11 -6 12 -5 2 7 -10 12 -8
17 10 29 19 11 21 11 12 -1 -5 -8 -3 -7 6 3 9 9 19 14 23 11 3 -4 6 -2 6 4 0
6 7 14 16 17 8 3 12 2 9 -4 -3 -5 1 -7 9 -4 8 3 18 15 22 26 4 14 9 17 17 9 7
-7 14 -6 22 5 10 15 13 14 30 -2 17 -17 18 -17 12 -2 -3 10 -2 20 3 23 6 4 10
1 10 -4 0 -6 4 -11 10 -11 5 0 7 6 5 13 -4 8 6 12 32 11 21 0 41 5 45 10 5 7
8 6 8 -3 0 -11 3 -11 15 -1 13 11 18 10 29 -5 10 -14 15 -15 21 -5 6 9 4 11
-5 5 -9 -5 -11 -4 -6 4 6 8 12 9 20 2 9 -7 16 -7 23 0 8 8 13 7 18 -2 6 -8 4
-10 -5 -4 -9 6 -11 4 -5 -5 6 -10 11 -9 21 4 8 12 13 13 16 5 2 -7 12 -13 21
-15 9 -1 15 2 11 7 -3 5 -10 6 -16 3 -7 -5 -8 -2 -4 5 5 7 14 10 22 7 8 -3 14
0 15 7 0 7 4 3 9 -8 5 -12 9 -15 9 -5z m-829 -40 c0 -5 -5 -10 -11 -10 -5 0
-7 5 -4 10 3 6 8 10 11 10 2 0 4 -4 4 -10z m1355 -278 c-3 -3 -11 0 -18 7 -9
10 -8 11 6 5 10 -3 15 -9 12 -12z m-1272 -57 c-3 -9 -8 -14 -10 -11 -3 3 -2 9
2 15 9 16 15 13 8 -4z m1477 -991 c0 -8 -19 -13 -24 -6 -3 5 1 9 9 9 8 0 15
-2 15 -3z m-640 -124 c0 -5 -5 -10 -11 -10 -5 0 -7 5 -4 10 3 6 8 10 11 10 2
0 4 -4 4 -10z m298 -175 c-3 -3 -9 2 -12 12 -6 14 -5 15 5 6 7 -7 10 -15 7
-18z"/>
<path d="M1265 1930 c6 -10 4 -12 -10 -6 -15 5 -16 4 -5 -9 11 -13 10 -14 -11
-7 -18 7 -27 5 -36 -7 -9 -13 -7 -21 10 -41 12 -13 14 -19 5 -11 -16 12 -16
10 -8 -18 6 -23 6 -30 -3 -24 -8 4 -7 1 1 -9 11 -14 10 -17 -5 -21 -16 -4 -16
-5 1 -6 20 -1 20 -1 0 -16 -18 -14 -18 -14 6 -10 22 4 23 3 8 -9 -10 -7 -16
-15 -13 -18 11 -10 11 -117 1 -112 -6 3 -2 -2 9 -12 16 -13 17 -16 3 -11 -10
3 -20 1 -24 -5 -4 -6 -3 -8 3 -5 6 4 13 -3 16 -14 4 -16 2 -19 -11 -15 -13 5
-12 3 2 -9 20 -15 20 -15 0 -15 -15 0 -16 -2 -4 -9 8 -6 19 -7 25 -5 5 3 2 -1
-7 -9 -10 -8 -14 -17 -10 -21 4 -4 7 -25 8 -46 0 -31 -3 -38 -18 -35 -10 2
-21 -1 -24 -7 -4 -6 -3 -8 3 -5 6 4 13 1 16 -7 6 -15 -9 -16 -31 -2 -11 7 -12
4 -3 -13 13 -23 2 -28 -18 -8 -10 10 -11 8 -5 -8 7 -18 6 -19 -11 -5 -18 15
-18 14 0 -13 10 -15 15 -30 11 -34 -3 -3 -6 -2 -6 4 0 5 -6 10 -13 10 -14 0
-15 -43 -1 -55 4 -4 4 2 0 13 -5 15 -4 17 5 8 9 -9 8 -16 -4 -33 -15 -21 -13
-55 2 -45 4 2 8 -2 8 -10 0 -8 -4 -12 -8 -10 -10 7 -5 -22 6 -32 4 -4 5 -2 0
6 -6 10 -4 12 5 6 10 -6 10 -11 -4 -20 -15 -11 -15 -13 -1 -19 9 -3 13 -2 10
4 -3 6 3 10 14 10 12 0 21 -5 21 -11 0 -5 -4 -7 -10 -4 -5 3 -10 1 -10 -6 0
-6 8 -9 20 -6 11 3 20 1 20 -4 0 -5 -4 -9 -10 -9 -5 0 -10 -5 -10 -11 0 -6 6
-9 14 -6 16 6 40 -16 29 -26 -3 -4 -4 -7 -1 -7 3 0 11 7 18 16 11 12 11 15 0
12 -7 -2 -15 4 -17 12 -3 10 -2 11 4 4 4 -6 18 -10 30 -9 17 1 20 -1 12 -11
-8 -10 -6 -13 10 -11 11 0 17 5 15 9 -3 4 2 8 11 8 10 0 13 -5 9 -12 -4 -7 2
-5 13 5 20 17 21 17 39 0 17 -17 17 -17 12 5 -5 18 -4 21 6 13 7 -6 17 -7 22
-3 4 4 2 -2 -6 -12 -14 -18 -14 -19 7 -8 26 14 36 15 29 3 -3 -5 4 -11 15 -14
14 -4 18 -10 13 -19 -4 -7 -4 -10 1 -6 4 4 14 3 21 -3 8 -7 14 -6 20 2 5 8 11
4 21 -12 8 -15 12 -18 11 -7 -2 9 2 17 7 17 6 0 9 -7 7 -15 -2 -8 2 -14 8 -14
5 0 10 5 10 12 0 6 3 8 6 5 4 -4 1 -13 -5 -21 -10 -12 -9 -15 11 -13 13 0 26
5 29 9 3 5 12 -3 19 -17 8 -15 20 -23 27 -20 8 2 11 0 8 -5 -4 -7 3 -9 19 -6
15 3 24 1 21 -3 -2 -5 2 -14 10 -21 12 -10 13 -8 10 9 -2 12 0 19 6 16 5 -4 7
-10 5 -14 -6 -10 22 -51 35 -51 5 0 9 5 9 11 0 5 -4 8 -9 4 -5 -3 -12 -1 -15
4 -4 5 -2 12 4 16 5 3 15 -3 22 -15 7 -11 21 -20 31 -20 10 0 15 5 12 10 -4 6
-11 7 -17 4 -7 -4 -8 -2 -4 5 4 6 12 8 18 5 5 -4 20 -1 33 6 l24 13 -22 19
c-21 18 -21 18 -1 9 12 -6 26 -6 35 0 11 7 11 9 0 9 -8 0 -11 7 -8 19 3 13 1
18 -9 14 -7 -2 -10 -12 -7 -21 4 -12 1 -12 -10 3 -11 14 -12 24 -5 32 11 13 5
16 -34 16 -10 0 -15 4 -12 8 3 5 11 6 17 2 8 -5 8 -2 0 9 -7 8 -11 17 -8 20 3
2 -1 5 -9 5 -8 0 -12 -7 -9 -16 4 -13 3 -13 -5 -2 -6 8 -15 10 -22 6 -9 -5
-11 -4 -6 3 4 7 3 12 -3 12 -6 0 -8 8 -4 18 6 15 3 14 -18 -3 -18 -15 -20 -16
-10 -2 12 15 11 17 -3 17 -11 0 -14 5 -10 12 5 8 0 9 -15 5 -23 -6 -55 18 -46
34 4 5 1 9 -5 9 -7 0 -10 -7 -7 -15 4 -8 2 -17 -4 -20 -5 -4 -8 -1 -7 7 2 8
-4 12 -17 10 -19 -4 -19 -4 0 15 11 10 16 15 11 10 -14 -10 -28 -9 -21 2 11
19 -18 24 -33 5 -13 -18 -14 -17 -10 13 2 18 0 30 -4 27 -5 -3 -15 0 -23 6 -9
7 -15 8 -15 2 0 -5 7 -12 15 -16 8 -3 15 -11 14 -18 0 -10 -2 -10 -6 0 -2 6
-11 12 -18 12 -7 0 -15 9 -18 21 -3 12 -10 19 -14 16 -5 -3 -15 -2 -23 3 -12
7 -12 11 1 26 9 11 9 15 2 10 -8 -4 -13 -1 -13 9 0 10 5 13 13 9 6 -4 3 2 -7
14 -11 12 -14 22 -8 22 6 0 1 10 -11 23 -12 12 -24 20 -27 16 -3 -3 -12 -8
-21 -11 -11 -5 -16 -1 -15 10 0 9 -5 16 -12 14 -9 -2 -9 4 3 21 15 23 12 37
-9 37 -6 0 -4 -5 4 -10 9 -6 10 -10 3 -10 -16 0 -26 17 -13 25 15 9 12 27 -2
20 -7 -4 -4 1 6 9 16 13 17 19 8 28 -16 16 -15 31 1 22 6 -4 5 1 -4 12 -15 18
-15 59 0 50 4 -3 8 5 8 17 2 17 0 19 -7 7 -8 -13 -10 -12 -10 3 0 9 6 17 13
17 8 0 7 4 -3 10 -8 5 -11 10 -6 10 5 0 3 6 -3 14 -9 11 -9 16 0 22 8 5 9 3 4
-6 -5 -8 -4 -11 3 -6 6 4 8 14 5 23 -5 12 -3 14 8 8 12 -7 12 -6 -1 9 -17 21
-25 60 -10 51 5 -3 10 -2 10 3 0 6 -6 12 -14 15 -9 4 -12 14 -9 26 3 12 8 19
12 17 4 -3 8 5 8 17 2 17 0 19 -7 7 -8 -13 -10 -12 -10 3 0 9 6 17 13 17 9 0
9 2 -1 9 -8 4 -14 12 -15 17 -1 5 -10 8 -19 8 -9 -1 -16 4 -15 10 1 6 -8 10
-20 10 -13 -1 -20 2 -18 7 3 4 0 11 -6 15 -8 5 -9 3 -4 -6z m-40 -40 c-3 -5
-11 -10 -16 -10 -6 0 -7 5 -4 10 3 6 11 10 16 10 6 0 7 -4 4 -10z m204 -554
c9 -11 9 -16 0 -22 -8 -4 -9 -3 -5 4 4 7 2 12 -3 12 -6 0 -11 5 -11 10 0 14 5
13 19 -4z m161 -170 c0 -3 -4 -8 -10 -11 -5 -3 -10 -1 -10 4 0 6 5 11 10 11 6
0 10 -2 10 -4z m-126 -112 c3 -8 10 -13 14 -10 5 3 9 -1 9 -9 0 -19 1 -19 -27
10 -13 14 -19 25 -13 25 6 0 14 -7 17 -16z m386 -138 c0 -3 -4 -8 -10 -11 -5
-3 -10 -1 -10 4 0 6 5 11 10 11 6 0 10 -2 10 -4z"/>
<path d="M1321 1928 c-1 -22 11 -29 29 -16 12 8 12 9 -2 4 -10 -3 -18 1 -21
12 -4 16 -5 16 -6 0z"/>
<path d="M1350 1546 c0 -2 7 -7 16 -10 8 -3 12 -2 9 4 -6 10 -25 14 -25 6z"/>
<path d="M1199 1468 c-6 -21 -5 -38 1 -38 5 0 8 9 7 20 -1 17 -5 26 -8 18z"/>
<path d="M1370 1386 c0 -2 7 -9 15 -16 13 -11 14 -10 9 4 -5 14 -24 23 -24 12z"/>
<path d="M1666 1118 c3 -5 10 -6 15 -3 13 9 11 12 -6 12 -8 0 -12 -4 -9 -9z"/>
<path d="M1765 1070 c-3 -6 1 -7 9 -4 18 7 21 14 7 14 -6 0 -13 -4 -16 -10z"/>
<path d="M1330 1060 c0 -5 5 -10 11 -10 5 0 7 5 4 10 -3 6 -8 10 -11 10 -2 0
-4 -4 -4 -10z"/>
<path d="M1830 1041 c0 -6 4 -13 10 -16 6 -3 7 1 4 9 -7 18 -14 21 -14 7z"/>
<path d="M1595 961 c-3 -5 -2 -12 3 -15 5 -3 9 1 9 9 0 17 -3 19 -12 6z"/>
<path d="M1670 921 c0 -5 5 -13 10 -16 6 -3 10 -2 10 4 0 5 -4 13 -10 16 -5 3
-10 2 -10 -4z"/>
<path d="M685 820 c21 -24 26 -25 19 -6 -3 8 -13 17 -22 21 -13 5 -13 2 3 -15z"/>
<path d="M1829 2242 c6 -11 7 -22 4 -26 -3 -3 -4 -6 -1 -6 3 0 11 6 17 14 10
12 8 17 -9 26 -20 10 -21 10 -11 -8z"/>
<path d="M746 2198 c3 -5 10 -6 15 -3 13 9 11 12 -6 12 -8 0 -12 -4 -9 -9z"/>
<path d="M675 2160 c-3 -5 -1 -10 4 -10 6 0 11 5 11 10 0 6 -2 10 -4 10 -3 0
-8 -4 -11 -10z"/>
<path d="M2394 2135 c3 -23 12 -26 13 -5 1 11 -2 20 -7 20 -4 0 -7 -7 -6 -15z"/>
<path d="M1951 2106 c2 -2 15 -9 29 -15 24 -11 24 -11 6 3 -16 13 -49 24 -35
12z"/>
<path d="M2040 1965 c0 -2 6 -8 13 -14 10 -8 14 -7 14 2 0 8 -6 14 -14 14 -7
0 -13 -1 -13 -2z"/>
<path d="M2275 1560 c-3 -5 -1 -10 4 -10 6 0 11 5 11 10 0 6 -2 10 -4 10 -3 0
-8 -4 -11 -10z"/>
<path d="M2286 982 c-3 -5 1 -9 9 -9 8 0 12 4 9 9 -3 4 -7 8 -9 8 -2 0 -6 -4
-9 -8z"/>
<path d="M1570 260 c0 -5 5 -10 11 -10 5 0 7 5 4 10 -3 6 -8 10 -11 10 -2 0
-4 -4 -4 -10z"/>
</g>
</svg>
