<?xml version="1.0" standalone="no"?>
<!DOCTYPE svg PUBLIC "-//W3C//DTD SVG 20010904//EN"
 "http://www.w3.org/TR/2001/REC-SVG-20010904/DTD/svg10.dtd">
<svg version="1.0" xmlns="http://www.w3.org/2000/svg"
 width="260.000000pt" height="260.000000pt" viewBox="0 0 260.000000 260.000000"
 preserveAspectRatio="xMidYMid meet">
<metadata>
Created by potrace 1.11, written by Peter Selinger 2001-2013
</metadata>
<g transform="translate(0.000000,260.000000) scale(0.100000,-0.100000)"
fill="#000000" stroke="none">
<path d="M1427 2443 c-13 -21 -43 -75 -66 -119 l-42 -82 -52 -5 c-29 -3 -57
-1 -63 4 -6 5 -42 54 -80 109 -38 54 -74 101 -81 104 -14 6 -223 -62 -240 -78
-10 -9 -10 -36 -3 -116 15 -163 16 -155 -34 -190 -25 -16 -51 -30 -60 -30 -8
0 -64 20 -125 45 -60 25 -117 45 -125 45 -20 0 -168 -189 -159 -203 4 -7 40
-57 81 -111 40 -54 71 -104 69 -110 -3 -6 -13 -31 -22 -56 -10 -25 -22 -49
-26 -54 -4 -5 -68 -21 -141 -35 l-133 -26 -12 -80 c-6 -44 -12 -101 -12 -126
l-1 -47 120 -42 c66 -23 123 -47 128 -54 5 -6 15 -42 22 -80 l13 -69 -97 -89
c-53 -49 -96 -96 -96 -104 0 -22 93 -203 107 -208 7 -3 62 6 122 19 61 14 118
25 128 25 10 0 43 -24 72 -54 l54 -54 -33 -133 -33 -132 22 -16 c13 -10 60
-37 106 -62 l84 -44 95 95 96 94 72 -12 c40 -7 78 -18 84 -25 7 -7 28 -62 48
-124 21 -61 44 -117 52 -124 11 -9 39 -9 121 -1 58 6 109 14 114 19 5 5 20 62
34 128 29 135 35 145 120 171 l53 17 103 -82 c56 -45 108 -80 115 -77 23 9
183 131 188 143 3 7 -15 65 -39 128 -25 64 -45 123 -45 131 0 17 59 101 77
108 6 3 67 -1 135 -9 95 -11 126 -11 134 -2 13 14 84 207 84 228 0 8 -44 46
-96 84 -128 94 -126 91 -117 156 l8 54 110 57 c60 31 114 63 119 70 11 19 -39
248 -57 260 -6 4 -43 8 -82 9 -38 1 -96 4 -128 8 -57 6 -59 7 -84 52 l-26 46
66 112 c37 62 67 118 67 125 0 17 -173 186 -190 186 -8 0 -64 -28 -125 -61
l-110 -62 -45 25 -45 25 -8 134 c-4 74 -12 138 -16 142 -7 7 -222 66 -243 67
-4 0 -18 -17 -31 -37z m18 -478 c228 -48 439 -237 514 -461 97 -292 -10 -617
-263 -795 -349 -246 -841 -118 -1026 266 -187 389 10 845 421 974 35 11 75 22
89 24 59 10 200 6 265 -8z"/>
<path d="M1228 1718 c-18 -17 -24 -34 -23 -65 0 -24 -4 -43 -8 -43 -5 0 -5 -6
-1 -12 5 -7 8 -22 8 -33 0 -11 -3 -26 -8 -33 -4 -6 -3 -12 1 -12 7 0 10 -90 3
-97 -3 -4 -3 -42 0 -45 7 -9 5 -65 -3 -75 -5 -7 -6 -13 -1 -13 5 0 9 -20 9
-45 1 -78 5 -80 241 -80 217 0 257 6 269 45 9 29 -5 69 -29 82 -13 7 -81 12
-183 13 -89 1 -166 4 -169 8 -4 4 -2 7 6 7 10 0 10 3 1 14 -7 8 -8 17 -3 20 5
3 6 26 2 50 -4 25 -3 51 1 58 4 7 3 18 -3 25 -6 7 -7 13 -2 13 7 0 10 111 3
130 -1 3 -1 9 1 15 5 30 -13 73 -36 83 -36 17 -50 15 -76 -10z"/>
</g>
</svg>
