<?xml version="1.0" standalone="no"?>
<!DOCTYPE svg PUBLIC "-//W3C//DTD SVG 20010904//EN"
 "http://www.w3.org/TR/2001/REC-SVG-20010904/DTD/svg10.dtd">
<svg version="1.0" xmlns="http://www.w3.org/2000/svg"
 width="1560.000000pt" height="1560.000000pt" viewBox="0 0 1560.000000 1560.000000"
 preserveAspectRatio="xMidYMid meet">
<metadata>
Created by potrace 1.14, written by Peter Selinger 2001-2017
</metadata>
<g transform="translate(0.000000,1560.000000) scale(0.100000,-0.100000)"
fill="#000000" stroke="none">
<path d="M2580 15508 c-477 -38 -852 -426 -875 -903 -2 -44 -6 -476 -10 -960
-6 -966 -12 -1792 -20 -2765 -2 -349 -7 -1020 -10 -1490 -4 -470 -8 -1050 -10
-1289 l-3 -434 41 -101 c300 -744 869 -1286 1695 -1617 206 -83 499 -174 692
-214 121 -26 326 -65 365 -69 28 -4 57 -9 65 -11 8 -2 38 -6 65 -10 28 -3 64
-8 80 -10 50 -7 116 -15 185 -20 36 -4 85 -8 110 -10 129 -13 285 -19 464 -20
l199 0 3 490 c3 552 13 2530 19 3530 2 363 7 1178 10 1810 4 633 8 1429 10
1770 6 1072 5 1458 -4 1515 -67 412 -377 726 -791 801 -72 13 -2127 20 -2280
7z"/>
<path d="M11880 15502 c-117 -21 -211 -79 -286 -177 -17 -22 -385 -747 -817
-1612 l-787 -1572 -3 -3073 c-1 -1690 -6 -3091 -10 -3113 -4 -22 -9 -60 -12
-85 -13 -105 -60 -304 -101 -430 -69 -211 -221 -498 -346 -654 -426 -530
-1055 -890 -1944 -1110 -98 -25 -192 -47 -209 -50 -16 -2 -66 -12 -110 -21
-79 -16 -278 -48 -365 -60 -25 -3 -56 -8 -70 -10 -25 -3 -102 -13 -170 -20
-19 -2 -66 -7 -105 -10 -38 -3 -88 -8 -110 -10 -276 -27 -1069 -27 -1255 0
-14 2 -56 6 -93 10 -37 3 -76 8 -86 10 -10 2 -42 6 -72 9 -30 3 -121 17 -204
32 -82 14 -163 28 -180 31 -16 2 -68 14 -115 25 -103 24 -114 26 -165 37 -232
50 -751 227 -996 340 -35 16 -86 39 -114 51 -243 108 -585 301 -855 482 -140
94 -365 259 -430 314 -14 12 -54 46 -89 75 -35 30 -79 67 -98 82 -36 31 -38
29 -23 -23 5 -19 11 -46 14 -60 16 -94 106 -425 160 -590 47 -146 138 -387
181 -485 7 -16 30 -68 50 -115 72 -164 246 -497 353 -673 426 -704 957 -1289
1617 -1782 152 -113 370 -260 525 -352 412 -246 893 -460 1345 -597 66 -21
134 -41 150 -46 33 -10 308 -79 340 -86 11 -2 43 -8 70 -14 28 -6 61 -13 75
-15 47 -9 315 -54 355 -59 122 -16 133 -17 275 -31 274 -28 885 -27 1140 1 25
3 61 7 80 8 39 4 78 9 230 31 119 17 135 20 240 40 41 8 89 17 105 20 43 7
387 92 449 111 633 194 1111 414 1646 757 127 82 450 315 480 347 3 3 43 36
90 74 302 243 712 660 930 946 19 25 37 47 40 50 9 8 150 198 193 260 321 462
574 943 760 1446 52 139 124 354 132 392 2 9 13 49 24 87 32 106 40 134 57
205 8 36 16 72 18 80 27 109 80 392 101 535 4 22 8 49 10 61 2 11 6 52 10 90
4 38 8 80 11 94 2 14 6 61 10 105 3 44 8 98 11 120 4 22 8 1428 10 3125 l4
3086 -777 1554 c-428 855 -792 1578 -809 1605 -65 100 -147 163 -255 195 -87
26 -141 29 -230 12z"/>
</g>
</svg>
